<svg width="24" height="24" viewBox="0 0 24 24" fill="none" xmlns="http://www.w3.org/2000/svg">
<path d="M7.00684 12.0001C7.00684 11.8012 7.08585 11.6104 7.22651 11.4698C7.36716 11.3291 7.55792 11.2501 7.75684 11.2501H11.2498V7.75708C11.2498 7.55817 11.3289 7.3674 11.4695 7.22675C11.6102 7.0861 11.8009 7.00708 11.9998 7.00708C12.1987 7.00708 12.3895 7.0861 12.5302 7.22675C12.6708 7.3674 12.7498 7.55817 12.7498 7.75708V11.2501H16.2428C16.4417 11.2501 16.6325 11.3291 16.7732 11.4698C16.9138 11.6104 16.9928 11.8012 16.9928 12.0001C16.9928 12.199 16.9138 12.3898 16.7732 12.5304C16.6325 12.6711 16.4417 12.7501 16.2428 12.7501H12.7498V16.2431C12.7498 16.442 12.6708 16.6328 12.5302 16.7734C12.3895 16.9141 12.1987 16.9931 11.9998 16.9931C11.8009 16.9931 11.6102 16.9141 11.4695 16.7734C11.3289 16.6328 11.2498 16.442 11.2498 16.2431V12.7501H7.75684C7.55792 12.7501 7.36716 12.6711 7.22651 12.5304C7.08585 12.3898 7.00684 12.199 7.00684 12.0001Z" fill="#757575"/>
<path fill-rule="evenodd" clip-rule="evenodd" d="M7.31667 3.76905C10.4291 3.42399 13.5702 3.42399 16.6827 3.76905C18.5097 3.97305 19.9847 5.41205 20.1987 7.24905C20.5687 10.406 20.5687 13.595 20.1987 16.752C19.9837 18.589 18.5087 20.027 16.6827 20.232C13.5702 20.5771 10.4291 20.5771 7.31667 20.232C5.48967 20.027 4.01467 18.589 3.80067 16.752C3.43233 13.5951 3.43233 10.406 3.80067 7.24905C4.01467 5.41205 5.49067 3.97305 7.31667 3.76905ZM16.5167 5.25905C13.5145 4.92627 10.4848 4.92627 7.48267 5.25905C6.92691 5.3207 6.40817 5.56792 6.01025 5.96076C5.61233 6.35361 5.35846 6.86913 5.28967 7.42405C4.934 10.465 4.934 13.5371 5.28967 16.578C5.35867 17.1328 5.61263 17.6481 6.01053 18.0407C6.40844 18.4334 6.92706 18.6804 7.48267 18.742C10.4597 19.074 13.5397 19.074 16.5167 18.742C17.0721 18.6802 17.5905 18.4331 17.9882 18.0404C18.3859 17.6478 18.6397 17.1326 18.7087 16.578C19.0643 13.5371 19.0643 10.465 18.7087 7.42405C18.6395 6.86964 18.3856 6.35469 17.9879 5.96227C17.5902 5.56985 17.0719 5.32282 16.5167 5.26105" fill="#757575"/>
</svg>
