<svg width="8" height="6" viewBox="0 0 8 6" fill="none" xmlns="http://www.w3.org/2000/svg">
<path d="M2.56498 4.56013L6.67548 0.155902C6.77248 0.0519674 6.88565 0 7.01499 0C7.14432 0 7.25749 0.0519674 7.3545 0.155902C7.4515 0.259837 7.5 0.383346 7.5 0.526429C7.5 0.669512 7.4515 0.792848 7.3545 0.896437L2.90449 5.67743C2.80749 5.78136 2.69432 5.83333 2.56498 5.83333C2.43564 5.83333 2.32247 5.78136 2.22547 5.67743L0.139908 3.44284C0.0429052 3.3389 -0.00365626 3.21557 0.000223853 3.07283C0.00410397 2.93009 0.054707 2.80658 0.152033 2.7023C0.249359 2.59802 0.364631 2.54605 0.497849 2.5464C0.631066 2.54675 0.746176 2.59871 0.843179 2.7023L2.56498 4.56013Z" fill="black"/>
</svg>
