<svg width="33" height="34" viewBox="0 0 33 34" fill="none" xmlns="http://www.w3.org/2000/svg">
<path d="M23.4048 31.7252C23.2286 31.6022 23.0751 31.4374 22.9531 31.2376C22.8967 31.1455 22.8491 31.048 22.8097 30.9474H2.78987V8.31289H29.9639V23.0924C30.544 23.1525 31.0308 23.5896 31.2351 24.188C31.4161 24.0743 31.6178 24.004 31.8298 23.9825C31.9731 23.9682 32.1156 23.9784 32.2537 24.0097V2.67414C32.2537 1.46717 31.3978 0.485229 30.3457 0.485229H2.4082C1.35605 0.485229 0.5 1.46717 0.5 2.67414V31.3853C0.5 32.5922 1.35605 33.5741 2.4082 33.5741H23.2309C23.0684 33.1966 23.0298 32.7706 23.1255 32.3606C23.1806 32.1248 23.276 31.9097 23.4048 31.7252ZM27.8684 4.16084C27.8684 3.7145 28.1839 3.35257 28.573 3.35257H29.2775C29.6668 3.35257 29.9821 3.7144 29.9821 4.16084V5.07684C29.9821 5.52318 29.6667 5.88502 29.2775 5.88502H28.573C28.1838 5.88502 27.8684 5.52318 27.8684 5.07684V4.16084ZM24.5921 4.16084C24.5921 3.7145 24.9076 3.35257 25.2967 3.35257H26.0014C26.3906 3.35257 26.7059 3.7144 26.7059 4.16084V5.07684C26.7059 5.52318 26.3905 5.88502 26.0014 5.88502H25.2967C24.9076 5.88502 24.5921 5.52318 24.5921 5.07684V4.16084ZM21.3158 4.16084C21.3158 3.7145 21.6313 3.35257 22.0204 3.35257H22.7249C23.1141 3.35257 23.4296 3.7144 23.4296 4.16084V5.07684C23.4296 5.52318 23.1141 5.88502 22.7249 5.88502H22.0204C21.6313 5.88502 21.3158 5.52318 21.3158 5.07684V4.16084Z" fill="#2F2F2F"/>
</svg>
