<svg width="56" height="55" viewBox="0 0 56 55" fill="none" xmlns="http://www.w3.org/2000/svg">
<g clip-path="url(#clip0_25_2754)">
<path d="M24.5631 18.9063C19.8166 18.9063 15.9688 22.7541 15.9688 27.5006C15.9688 32.2471 19.8166 36.0948 24.5631 36.0948C27.0109 36.0948 29.2162 35.0749 30.7847 33.4297C31.7672 32.3991 33.3991 32.3601 34.4297 33.3427C35.4604 34.3252 35.4993 35.9569 34.5167 36.9875C32.0156 39.611 28.4787 41.251 24.5631 41.251C16.9689 41.251 10.8125 35.0948 10.8125 27.5006C10.8125 19.9064 16.9689 13.75 24.5631 13.75C28.4622 13.75 31.9859 15.3762 34.4851 17.9805C35.4711 19.0078 35.4374 20.6399 34.4102 21.6257C33.3828 22.6116 31.7508 22.5781 30.7649 21.5508C29.1976 19.9177 27.0007 18.9063 24.5631 18.9063Z" fill="black"/>
<path d="M48.625 20.625C49.5741 20.625 50.3438 21.3945 50.3438 22.3438V25.7812H53.7812C54.7303 25.7812 55.5 26.5508 55.5 27.5C55.5 28.4492 54.7303 29.2188 53.7812 29.2188H50.3438V32.6562C50.3438 33.6055 49.5741 34.375 48.625 34.375C47.6759 34.375 46.9062 33.6055 46.9062 32.6562V29.2188H43.4688C42.5197 29.2188 41.75 28.4492 41.75 27.5C41.75 26.5508 42.5197 25.7812 43.4688 25.7812H46.9062V22.3438C46.9062 21.3945 47.6759 20.625 48.625 20.625Z" fill="black"/>
<path d="M40.0312 20.625C40.9803 20.625 41.75 21.3945 41.75 22.3438V25.7812H45.1875C46.1366 25.7812 46.9062 26.5508 46.9062 27.5C46.9062 28.4492 46.1366 29.2188 45.1875 29.2188H41.75V32.6562C41.75 33.6055 40.9803 34.375 40.0312 34.375C39.0822 34.375 38.3125 33.6055 38.3125 32.6562V29.2188H34.875C33.9258 29.2188 33.1562 28.4492 33.1562 27.5C33.1562 26.5508 33.9258 25.7812 34.875 25.7812H38.3125V22.3438C38.3125 21.3945 39.0822 20.625 40.0312 20.625Z" fill="black"/>
<path d="M23.1407 0.351196C23.9434 -0.117065 24.9361 -0.117065 25.7388 0.351196L41.9442 9.80433C43.1742 10.5218 43.5894 12.1004 42.872 13.3303C42.1546 14.5602 40.5761 14.9756 39.3462 14.2582L24.4397 5.56284L5.65625 16.5199V38.4801L24.4397 49.4371L39.3462 40.7419C40.5761 40.0245 42.1546 40.4398 42.872 41.6697C43.5894 42.8997 43.1742 44.4782 41.9442 45.1956L25.7388 54.6487C24.9361 55.1172 23.9434 55.1172 23.1407 54.6487L1.77908 42.1877C0.987035 41.7257 0.5 40.8781 0.5 39.9609V15.0391C0.5 14.1221 0.987035 13.2741 1.77908 12.8121L23.1407 0.351196Z" fill="black"/>
</g>
<defs>
<clipPath id="clip0_25_2754">
<rect width="55" height="55" fill="white" transform="translate(0.5)"/>
</clipPath>
</defs>
</svg>
