<svg width="78" height="87" viewBox="0 0 78 87" fill="none" xmlns="http://www.w3.org/2000/svg">
<path d="M77.2185 0.182373L70.0467 78.4388L38.9747 86.8671L7.9022 78.4388L0.731979 0.182373H77.2185ZM62.7671 16.0946H38.9468H14.7045L15.8639 25.5448H38.9468H40.2434L38.9468 26.0885L16.7075 35.4196L17.445 44.6569L38.9468 44.7271L50.4711 44.7639L49.7333 57.0807L38.9466 60.1401V60.1304L38.8582 60.1552L28.4409 57.5059L27.8088 49.8604H27.7743H18.1117H18.0777L19.3425 64.6201L38.9469 70.4605V70.45L38.9823 70.4605L58.4817 64.7264L61.0111 35.4196H38.9469H38.8925L38.9469 35.3958L61.8194 25.5448L62.7671 16.0946Z" fill="#2F2F2F" fill-opacity="0.933333"/>
</svg>
