<svg width="56" height="55" viewBox="0 0 56 55" fill="none" xmlns="http://www.w3.org/2000/svg">
<path d="M39.0863 9.41241C37.0259 7.35953 34.9397 5.33419 32.8077 3.35659C32.2072 2.70474 31.3496 2.2971 30.3965 2.2971C30.3818 2.2971 30.3689 2.2971 30.3543 2.2971C29.6179 2.36871 28.9439 2.52662 28.3048 2.76166L28.3618 2.7433L15.0296 9.40874L39.0863 9.41241ZM11.4596 10.9658V37.9747C11.4412 38.1271 11.4302 38.3033 11.4302 38.4815C11.4302 39.6236 11.8765 40.6629 12.6037 41.4322L12.6018 41.4304L23.881 52.7066H43.4367V42.9379L11.4596 10.9658ZM9.90417 9.40874C9.90417 9.40874 21.4845 3.62284 27.2728 0.727139C28.1836 0.268087 29.2561 0 30.3928 0C30.4883 0 30.5856 0.00183625 30.6811 0.00550867H30.6683C32.1484 0.297466 33.4467 0.930959 34.5265 1.82336L34.5119 1.81234L55.5 22.8002V45.2314H45.7304V55H22.9334L2.30885 34.3775C1.21619 33.2538 0.531219 31.7279 0.5 30.0404V30.0349C0.593656 29.0966 0.850751 28.2391 1.24374 27.4605L1.22538 27.5028L9.90417 9.40874Z" fill="black"/>
</svg>
