<svg width="169" height="136" viewBox="0 0 169 136" fill="none" xmlns="http://www.w3.org/2000/svg">
<path d="M118.565 28.9218C112.234 22.6138 105.824 16.3905 99.2727 10.3139C97.4275 8.31092 94.7924 7.05836 91.8638 7.05836C91.8186 7.05836 91.7791 7.05836 91.734 7.05836C89.4713 7.2784 87.4004 7.76363 85.4367 8.48583L85.6116 8.42941L44.6453 28.9105L118.565 28.9218ZM33.6759 33.6951V116.686C33.6194 117.154 33.5856 117.696 33.5856 118.243C33.5856 121.752 34.9568 124.946 37.1913 127.31L37.1856 127.304L71.8433 161.953H131.933V131.937L33.6759 33.6951ZM28.8965 28.9105C28.8965 28.9105 64.4796 11.132 82.2655 2.2343C85.0643 0.823757 88.3596 0 91.8525 0C92.1459 0 92.445 0.00564229 92.7384 0.0169266H92.6989C97.2469 0.914032 101.236 2.86058 104.554 5.60268L104.509 5.56882L169 70.0589V138.984H138.981V169H68.9317L5.5581 105.633C2.20067 102.18 0.0959266 97.4911 0 92.3059V92.289C0.28778 89.4059 1.07776 86.771 2.28531 84.3787L2.22888 84.5085L28.8965 28.9105Z" fill="url(#paint0_linear_62_98)"/>
<defs>
<linearGradient id="paint0_linear_62_98" x1="84.5" y1="0" x2="84.5" y2="169" gradientUnits="userSpaceOnUse">
<stop/>
<stop offset="0.61" stop-color="#5B5B5B"/>
<stop offset="1" stop-color="#EEEEEE" stop-opacity="0.933333"/>
</linearGradient>
</defs>
</svg>
