<svg width="39" height="39" viewBox="0 0 39 39" fill="none" xmlns="http://www.w3.org/2000/svg">
<path fill-rule="evenodd" clip-rule="evenodd" d="M19.5 2.03125C15.4586 2.03125 11.7423 2.6845 8.99275 3.78462C7.62125 4.33225 6.43012 5.01637 5.56075 5.83862C4.68975 6.6625 4.0625 7.709 4.0625 8.9375V30.0414L4.10475 30.0625H4.0625C4.0625 31.291 4.68975 32.3375 5.56075 33.1614C6.43012 33.9836 7.62125 34.6677 8.99275 35.2154C11.7423 36.3155 15.4586 36.9688 19.5 36.9688C23.5414 36.9688 27.2561 36.3155 30.0073 35.2154C31.3788 34.6677 32.5699 33.9836 33.4393 33.1614C34.3103 32.3375 34.9375 31.291 34.9375 30.0625H34.8953L34.9375 30.0414V8.9375C34.9375 7.709 34.3103 6.6625 33.4393 5.83862C32.5699 5.01637 31.3788 4.33225 30.0073 3.78462C27.2561 2.6845 23.5414 2.03125 19.5 2.03125ZM6.5 8.9375C6.5 8.59625 6.669 8.14613 7.23612 7.60988C7.80487 7.07038 8.697 6.52762 9.89788 6.04662C12.2948 5.08787 15.6894 4.46875 19.5 4.46875C23.3106 4.46875 26.7053 5.0895 29.1021 6.04662C30.3046 6.52762 31.1935 7.07038 31.7639 7.60988C32.3326 8.14613 32.5 8.59463 32.5 8.9375C32.5 9.27875 32.331 9.72887 31.7639 10.2651C31.1951 10.8046 30.303 11.3474 29.1021 11.8284C26.7053 12.7871 23.3106 13.4062 19.5 13.4062C15.6894 13.4062 12.2948 12.7855 9.89788 11.8284C8.69537 11.3474 7.8065 10.8046 7.23612 10.2651C6.66737 9.72887 6.5 9.28037 6.5 8.9375ZM32.5 19.5V12.7904C31.7196 13.3143 30.8836 13.7503 30.0073 14.0904C27.2561 15.1905 23.5414 15.8438 19.5 15.8438C15.4586 15.8438 11.7423 15.1905 8.99275 14.0904C8.11644 13.7503 7.28043 13.3143 6.5 12.7904V19.5C6.5 19.8412 6.669 20.2914 7.23612 20.8276C7.80487 21.3671 8.697 21.9099 9.89788 22.3892C12.2948 23.348 15.6894 23.9688 19.5 23.9688C23.3106 23.9688 26.7053 23.348 29.1021 22.3892C30.3046 21.9099 31.1935 21.3671 31.7639 20.8292C32.3326 20.293 32.5 19.8429 32.5 19.5ZM6.5 23.3529C7.21987 23.8485 8.06487 24.2824 8.99275 24.6529C11.7423 25.753 15.4586 26.4062 19.5 26.4062C23.5414 26.4062 27.2561 25.753 30.0073 24.6529C30.8836 24.3128 31.7196 23.8768 32.5 23.3529V30.0414L32.5211 30.0625H32.5C32.5 30.4037 32.331 30.8539 31.7639 31.3901C31.1951 31.9296 30.303 32.4724 29.1021 32.9534C26.7053 33.9121 23.3106 34.5312 19.5 34.5312C15.6894 34.5312 12.2948 33.9105 9.89788 32.9534C8.69537 32.4724 7.8065 31.9296 7.23612 31.3901C6.66737 30.8539 6.5 30.4054 6.5 30.0625H6.47887L6.5 30.0414V23.3512V23.3529Z" fill="black"/>
</svg>
    