<svg width="24" height="24" viewBox="0 0 24 24" fill="none" xmlns="http://www.w3.org/2000/svg">
<g clip-path="url(#clip0_103_359)">
<path d="M3 21V18.2C3 17.6334 3.146 17.1127 3.438 16.638C3.73 16.1634 4.11733 15.8007 4.6 15.55C5.63333 15.0334 6.68333 14.646 7.75 14.388C8.81667 14.13 9.9 14.0007 11 14C12.1 13.9994 13.1833 14.1287 14.25 14.388C15.3167 14.6474 16.3667 15.0347 17.4 15.55C17.8833 15.8 18.271 16.1627 18.563 16.638C18.855 17.1134 19.0007 17.634 19 18.2V21H3ZM21 21V18C21 17.2667 20.796 16.5624 20.388 15.887C19.98 15.2117 19.4007 14.6327 18.65 14.15C19.5 14.25 20.3 14.421 21.05 14.663C21.8 14.905 22.5 15.2007 23.15 15.55C23.75 15.8834 24.2083 16.254 24.525 16.662C24.8417 17.07 25 17.516 25 18V21H21ZM11 13C9.9 13 8.95833 12.6084 8.175 11.825C7.39167 11.0417 7 10.1 7 9.00003C7 7.90003 7.39167 6.95836 8.175 6.17503C8.95833 5.39169 9.9 5.00003 11 5.00003C12.1 5.00003 13.0417 5.39169 13.825 6.17503C14.6083 6.95836 15 7.90003 15 9.00003C15 10.1 14.6083 11.0417 13.825 11.825C13.0417 12.6084 12.1 13 11 13ZM21 9.00003C21 10.1 20.6083 11.0417 19.825 11.825C19.0417 12.6084 18.1 13 17 13C16.8167 13 16.5833 12.9794 16.3 12.938C16.0167 12.8967 15.7833 12.8507 15.6 12.8C16.05 12.2667 16.396 11.675 16.638 11.025C16.88 10.375 17.0007 9.70003 17 9.00003C16.9993 8.30003 16.8787 7.62503 16.638 6.97503C16.3973 6.32503 16.0513 5.73336 15.6 5.20003C15.8333 5.11669 16.0667 5.06236 16.3 5.03703C16.5333 5.01169 16.7667 4.99936 17 5.00003C18.1 5.00003 19.0417 5.39169 19.825 6.17503C20.6083 6.95836 21 7.90003 21 9.00003ZM5 19H17V18.2C17 18.0167 16.9543 17.85 16.863 17.7C16.7717 17.55 16.6507 17.4334 16.5 17.35C15.6 16.9 14.6917 16.5627 13.775 16.338C12.8583 16.1134 11.9333 16.0007 11 16C10.0667 15.9994 9.14167 16.112 8.225 16.338C7.30833 16.564 6.4 16.9014 5.5 17.35C5.35 17.4334 5.229 17.55 5.137 17.7C5.045 17.85 4.99933 18.0167 5 18.2V19ZM11 11C11.55 11 12.021 10.8044 12.413 10.413C12.805 10.0217 13.0007 9.55069 13 9.00003C12.9993 8.44936 12.8037 7.97869 12.413 7.58803C12.0223 7.19736 11.5513 7.00136 11 7.00003C10.4487 6.99869 9.978 7.19469 9.588 7.58803C9.198 7.98136 9.002 8.45203 9 9.00003C8.998 9.54803 9.194 10.019 9.588 10.413C9.982 10.807 10.4527 11.0027 11 11Z" fill="#757575"/>
</g>
<defs>
<clipPath id="clip0_103_359">
<rect width="24" height="24" fill="white"/>
</clipPath>
</defs>
</svg>
