<svg width="97" height="111" viewBox="0 0 97 111" fill="none" xmlns="http://www.w3.org/2000/svg">
<path d="M52.5368 28.275C52.5368 25.7522 54.3441 23.707 56.5736 23.707H68.684C70.9135 23.707 72.7208 25.7522 72.7208 28.275C72.7208 30.7978 70.9135 32.8429 68.684 32.8429H61.4178C60.9717 32.8429 60.6104 33.2519 60.6104 33.7565V41.0652C60.6104 41.5698 60.9717 41.9788 61.4178 41.9788H68.684C70.9135 41.9788 72.7208 44.024 72.7208 46.5467V60.2506C72.7208 61.462 72.2953 62.6241 71.5384 63.4806L59.428 77.1844C57.8517 78.9682 55.2956 78.9682 53.7192 77.1844C52.1429 75.4006 52.1429 72.5082 53.7192 70.7244L64.4107 58.6262C64.562 58.4549 64.6472 58.2224 64.6472 57.9798V52.0283C64.6472 51.5235 64.2859 51.1147 63.8399 51.1147H56.5736C54.3441 51.1147 52.5368 49.0696 52.5368 46.5467V28.275Z" fill="#2F2F2F" fill-opacity="0.933333"/>
<path d="M44.4632 28.275C44.4632 25.7522 42.6559 23.707 40.4264 23.707C38.1969 23.707 36.3896 25.7522 36.3896 28.275V60.7206C36.3896 61.5346 35.52 61.9425 35.0114 61.367L32.5893 58.6262C32.4379 58.4549 32.3528 58.2224 32.3528 57.9798V55.6826C32.3528 53.1598 30.5455 51.1147 28.316 51.1147C26.0866 51.1147 24.2792 53.1598 24.2792 55.6826V60.2506C24.2792 61.462 24.7046 62.6241 25.4616 63.4806L37.5719 77.1844C38.7265 78.4908 40.4627 78.8818 41.9713 78.1747C43.4798 77.4676 44.4632 75.8021 44.4632 73.9544V28.275Z" fill="#2F2F2F" fill-opacity="0.933333"/>
<path fill-rule="evenodd" clip-rule="evenodd" d="M5.45248 21.0769C4.41022 12.8212 10.0714 5.43506 17.4411 5.43506H79.5591C86.9287 5.43506 92.5899 12.8212 91.5476 21.0769L85.2139 71.2472C84.8041 74.4923 83.3799 77.4637 81.2001 79.6226L56.4748 104.104C51.9087 108.624 45.0914 108.624 40.5254 104.104L15.8002 79.6226C13.62 77.4637 12.1959 74.4923 11.7863 71.2472L5.45248 21.0769ZM17.4411 14.5709C14.9845 14.5709 13.0975 17.033 13.4449 19.7849L19.7787 69.955C19.9153 71.0367 20.39 72.0274 21.1167 72.7469L45.8419 97.2279C47.3637 98.7348 49.6364 98.7348 51.1583 97.2279L75.8836 72.7469C76.6102 72.0274 77.085 71.0367 77.2214 69.955L83.5551 19.7849C83.9027 17.033 82.0155 14.5709 79.5591 14.5709H17.4411Z" fill="#2F2F2F" fill-opacity="0.933333"/>
</svg>
