<svg width="56" height="55" viewBox="0 0 56 55" fill="none" xmlns="http://www.w3.org/2000/svg">
<path fill-rule="evenodd" clip-rule="evenodd" d="M42.652 50.6884C37.8533 50.6884 34.7512 48.4006 33.2387 45.4086L37.4462 42.9714C38.5545 44.7809 39.9927 46.1095 42.542 46.1095C44.6815 46.1095 46.0482 45.039 46.0482 43.5623C46.0482 41.3403 43.0837 40.4721 40.991 39.5756C37.262 37.9888 34.787 35.995 34.787 31.7848C34.787 27.91 37.7405 24.9568 42.3578 24.9568C45.6413 24.9568 48.0062 26.1006 49.703 29.0898L45.6797 31.6747C44.7942 30.0879 43.8345 29.4604 42.3578 29.4604C40.8425 29.4604 39.8828 30.4207 39.8828 31.6747C39.8828 33.2257 40.8425 33.853 43.059 34.8127C47.7038 36.8037 51.2182 38.3679 51.2182 43.4884C51.2182 48.1414 47.5635 50.6884 42.652 50.6884ZM30.75 42.8976C30.75 48.2518 27.4527 51.0818 22.874 51.0818C18.738 51.0818 16.2602 49.5 15.042 46.75H15.0008H14.9815H14.9705L19.1752 43.8107C19.9865 45.2489 20.718 46.2693 22.489 46.2693C24.1885 46.2693 25.25 45.4087 25.25 42.8264V24.75H30.75V42.8976ZM0.5 55H55.5V0H0.5V55Z" fill="black"/>
</svg>
