<svg width="32" height="32" viewBox="0 0 32 32" fill="none" xmlns="http://www.w3.org/2000/svg">
<path d="M16 31.8334C13.8361 31.8334 11.791 31.4175 9.8646 30.5857C7.93821 29.7539 6.25619 28.6192 4.81852 27.1815C3.38085 25.7439 2.24613 24.0618 1.41435 22.1354C0.582576 20.209 0.166687 18.1639 0.166687 16C0.166687 13.8097 0.582576 11.7583 1.41435 9.8456C2.24613 7.93294 3.38085 6.25724 4.81852 4.81852C6.25619 3.3798 7.93821 2.24508 9.8646 1.41435C11.791 0.583632 13.8361 0.167743 16 0.166687C18.1903 0.166687 20.2423 0.582576 22.156 1.41435C24.0697 2.24613 25.7449 3.38085 27.1815 4.81852C28.6181 6.25619 29.7529 7.93188 30.5857 9.8456C31.4185 11.7593 31.8344 13.8108 31.8334 16C31.8334 18.1639 31.4175 20.209 30.5857 22.1354C29.7539 24.0618 28.6192 25.7444 27.1815 27.1831C25.7439 28.6218 24.0682 29.7565 22.1544 30.5873C20.2407 31.418 18.1892 31.8334 16 31.8334ZM16 28.5875C16.6861 27.6375 17.2799 26.6479 17.7813 25.6188C18.2827 24.5896 18.6917 23.4945 19.0084 22.3334H12.9917C13.3084 23.4945 13.7174 24.5896 14.2188 25.6188C14.7202 26.6479 15.3139 27.6375 16 28.5875ZM11.8834 27.9542C11.4084 27.0834 10.993 26.1793 10.6373 25.2419C10.2815 24.3046 9.98441 23.3351 9.74585 22.3334H5.07502C5.8403 23.6528 6.79716 24.8007 7.9456 25.7771C9.09405 26.7535 10.4066 27.4792 11.8834 27.9542ZM20.1167 27.9542C21.5945 27.4792 22.9076 26.7535 24.056 25.7771C25.2045 24.8007 26.1608 23.6528 26.925 22.3334H22.2542C22.0167 23.3361 21.7201 24.3062 21.3644 25.2435C21.0086 26.1809 20.5927 27.0844 20.1167 27.9542ZM3.72919 19.1667H9.11252C9.03335 18.6389 8.97424 18.118 8.93519 17.6039C8.89613 17.0899 8.87608 16.5552 8.87502 16C8.87397 15.4448 8.89402 14.9107 8.93519 14.3977C8.97635 13.8847 9.03547 13.3632 9.11252 12.8334H3.72919C3.59724 13.3611 3.49855 13.8826 3.4331 14.3977C3.36766 14.9128 3.33441 15.4469 3.33335 16C3.3323 16.5531 3.36555 17.0878 3.4331 17.6039C3.50066 18.1201 3.59935 18.641 3.72919 19.1667ZM12.2792 19.1667H19.7209C19.8 18.6389 19.8597 18.118 19.8998 17.6039C19.9399 17.0899 19.9594 16.5552 19.9584 16C19.9573 15.4448 19.9372 14.9107 19.8982 14.3977C19.8591 13.8847 19.8 13.3632 19.7209 12.8334H12.2792C12.2 13.3611 12.1409 13.8826 12.1019 14.3977C12.0628 14.9128 12.0427 15.4469 12.0417 16C12.0406 16.5531 12.0607 17.0878 12.1019 17.6039C12.143 18.1201 12.2021 18.641 12.2792 19.1667ZM22.8875 19.1667H28.2709C28.4028 18.6389 28.502 18.118 28.5685 17.6039C28.635 17.0899 28.6677 16.5552 28.6667 16C28.6656 15.4448 28.6329 14.9107 28.5685 14.3977C28.5041 13.8847 28.4049 13.3632 28.2709 12.8334H22.8875C22.9667 13.3611 23.0263 13.8826 23.0664 14.3977C23.1065 14.9128 23.1261 15.4469 23.125 16C23.124 16.5531 23.1039 17.0878 23.0649 17.6039C23.0258 18.1201 22.9667 18.641 22.8875 19.1667ZM22.2542 9.66669H26.925C26.1597 8.34724 25.2034 7.19933 24.056 6.22294C22.9086 5.24655 21.5955 4.52085 20.1167 4.04585C20.5917 4.91669 21.0076 5.82077 21.3644 6.7581C21.7211 7.69544 22.0177 8.66496 22.2542 9.66669ZM12.9917 9.66669H19.0084C18.6917 8.50558 18.2827 7.41044 17.7813 6.38127C17.2799 5.3521 16.6861 4.36252 16 3.41252C15.3139 4.36252 14.7202 5.3521 14.2188 6.38127C13.7174 7.41044 13.3084 8.50558 12.9917 9.66669ZM5.07502 9.66669H9.74585C9.98335 8.66391 10.2805 7.69385 10.6373 6.75652C10.994 5.81919 11.4094 4.91563 11.8834 4.04585C10.4056 4.52085 9.09247 5.24655 7.94402 6.22294C6.79558 7.19933 5.83924 8.34724 5.07502 9.66669Z" fill="#35A7FF"/>
</svg>
