<svg width="180" height="136" viewBox="0 0 180 136" fill="none" xmlns="http://www.w3.org/2000/svg">
<path d="M84.1056 0.0487077C83.7185 0.0840887 82.4868 0.207922 81.3783 0.296374C55.8123 2.61382 31.8651 16.4831 16.6979 37.8002C8.2522 49.6528 2.85044 63.0975 0.809384 77.3383C0.0879765 82.3093 -1.81021e-09 83.7776 -1.95585e-09 90.5177C-2.10148e-09 97.2578 0.0879765 98.7261 0.809384 103.697C5.70088 137.68 29.7537 166.233 62.3754 176.812C68.217 178.705 74.3754 179.996 81.3783 180.774C84.1056 181.075 95.8944 181.075 98.6217 180.774C110.71 179.43 120.95 176.423 131.05 171.239C132.598 170.443 132.897 170.231 132.686 170.054C132.545 169.948 125.947 161.05 118.029 150.294L103.636 130.746L85.6012 103.909C75.6774 89.1555 67.5132 77.0907 67.4428 77.0907C67.3724 77.073 67.3021 88.9963 67.2669 103.556C67.2141 129.048 67.1965 130.074 66.8798 130.675C66.4223 131.542 66.0704 131.896 65.3314 132.285C64.7683 132.568 64.2757 132.621 61.6188 132.621L58.5748 132.621L57.7654 132.108C57.2375 131.772 56.8504 131.33 56.5865 130.817L56.217 130.021L56.2522 94.5511L56.305 59.0641L56.8504 58.3742C57.132 58.0027 57.7302 57.525 58.1525 57.295C58.8739 56.9412 59.1554 56.9058 62.1994 56.9058C65.7889 56.9058 66.3871 57.0474 67.3196 58.0734C67.5836 58.3565 77.349 73.1457 89.0323 90.96C100.716 108.774 116.692 133.099 124.54 145.04L138.792 166.746L139.513 166.268C145.9 162.093 152.657 156.149 158.006 149.958C169.39 136.814 176.727 120.786 179.191 103.697C179.912 98.7261 180 97.2578 180 90.5177C180 83.7776 179.912 82.3093 179.191 77.3383C174.299 43.355 150.246 14.8026 117.625 4.22366C111.871 2.34847 105.748 1.05706 98.8856 0.278684C97.1965 0.101779 85.566 -0.0928159 84.1056 0.0487077ZM120.95 54.783C121.795 55.2076 122.481 56.0213 122.727 56.8705C122.868 57.3304 122.903 67.1663 122.868 89.3325L122.815 121.14L117.238 112.542L111.642 103.945L111.642 80.8233C111.642 65.8749 111.713 57.4719 111.818 57.0651C112.1 56.0744 112.716 55.296 113.56 54.8361C114.282 54.4646 114.545 54.4292 117.308 54.4292C119.912 54.4292 120.37 54.4646 120.95 54.783Z" fill="url(#paint0_linear_23_2591)"/>
<defs>
<linearGradient id="paint0_linear_23_2591" x1="90" y1="1.94466e-09" x2="90" y2="181" gradientUnits="userSpaceOnUse">
<stop stop-color="#231F1F"/>
<stop offset="0.485577" stop-color="#3F3F3F"/>
<stop offset="1" stop-color="#707070"/>
</linearGradient>
</defs>
</svg>
