<svg width="56" height="55" viewBox="0 0 56 55" fill="none" xmlns="http://www.w3.org/2000/svg">
<path d="M27.6725 0.00044981C25.4046 0.0108236 23.2388 0.202178 21.3332 0.5357C15.7193 1.51665 14.7001 3.56986 14.7001 7.35632V12.3571H27.9663V14.024H14.7001H9.72141C5.86589 14.024 2.48988 16.3161 1.43391 20.6764C0.215858 25.6743 0.161828 28.7931 1.43391 34.0118C2.37691 37.8964 4.62895 40.6642 8.48447 40.6642H13.0457V34.6694C13.0457 30.3385 16.8343 26.5183 21.3332 26.5183H34.5839C38.2724 26.5183 41.217 23.5144 41.217 19.8506V7.35632C41.217 3.80038 38.184 1.12917 34.5839 0.5357C32.305 0.160487 29.9404 -0.00997231 27.6725 0.00044981ZM20.4983 4.02247C21.8686 4.02247 22.9876 5.14737 22.9876 6.53051C22.9876 7.90874 21.8686 9.02324 20.4983 9.02324C19.123 9.02324 18.0089 7.90874 18.0089 6.53051C18.0089 5.14737 19.123 4.02247 20.4983 4.02247ZM42.8714 14.024V19.8506C42.8714 24.3679 38.9993 28.1699 34.5839 28.1699H21.3332C17.7036 28.1699 14.7001 31.2424 14.7001 34.8376V47.3319C14.7001 50.8878 17.8264 52.9794 21.3332 53.9996C25.5325 55.2209 29.5595 55.4416 34.5839 53.9996C37.9237 53.0431 41.217 51.1183 41.217 47.3319V42.3311H27.9663V40.6642H41.217H47.8501C51.7056 40.6642 53.1424 38.0043 54.4832 34.0118C55.8682 29.9016 55.8093 25.949 54.4832 20.6764C53.5304 16.8801 51.7105 14.024 47.8501 14.024H42.8714ZM35.4189 45.665C36.7941 45.665 37.9082 46.7795 37.9082 48.1577C37.9082 49.5408 36.7941 50.6657 35.4189 50.6657C34.0485 50.6657 32.9295 49.5408 32.9295 48.1577C32.9295 46.7795 34.0485 45.665 35.4189 45.665Z" fill="black"/>
</svg>
