<svg width="162" height="127" viewBox="0 0 162 127" fill="none" xmlns="http://www.w3.org/2000/svg">
<path d="M80.0354 0.00133307C73.3555 0.0320773 66.9762 0.599182 61.3632 1.58762C44.8279 4.49479 41.8257 10.5798 41.8257 21.8015V36.6219H80.9007V41.5621H41.8257H27.1613C15.805 41.5621 5.86112 48.3549 2.75079 61.2773C-0.836926 76.0894 -0.996069 85.3324 2.75079 100.799C5.52837 112.311 12.1616 120.514 23.5179 120.514H36.9528V102.747C36.9528 89.9123 48.1118 78.5905 61.3632 78.5905H100.393C111.257 78.5905 119.93 69.6882 119.93 58.8299V21.8015C119.93 11.2629 110.997 3.34646 100.393 1.58762C93.6801 0.475626 86.7153 -0.0295543 80.0354 0.00133307ZM58.904 11.9211C62.9401 11.9211 66.2362 15.2549 66.2362 19.354C66.2362 23.4386 62.9401 26.7416 58.904 26.7416C54.8533 26.7416 51.5717 23.4386 51.5717 19.354C51.5717 15.2549 54.8533 11.9211 58.904 11.9211ZM124.803 41.5621V58.8299C124.803 72.2175 113.398 83.4854 100.393 83.4854H61.3632C50.6724 83.4854 41.8257 92.5912 41.8257 103.246V140.274C41.8257 150.813 51.0341 157.012 61.3632 160.035C73.7321 163.655 85.5933 164.309 100.393 160.035C110.23 157.201 119.93 151.496 119.93 140.274V125.454H80.9007V120.514H119.93H139.468C150.824 120.514 155.056 112.631 159.005 100.799C163.085 88.6175 162.911 76.9034 159.005 61.2773C156.199 50.0266 150.838 41.5621 139.468 41.5621H124.803ZM102.852 135.334C106.903 135.334 110.184 138.637 110.184 142.722C110.184 146.821 106.903 150.155 102.852 150.155C98.8157 150.155 95.5196 146.821 95.5196 142.722C95.5196 138.637 98.8157 135.334 102.852 135.334Z" fill="url(#paint0_linear_61_95)"/>
<defs>
<linearGradient id="paint0_linear_61_95" x1="81" y1="0" x2="81" y2="163" gradientUnits="userSpaceOnUse">
<stop/>
<stop offset="0.61" stop-color="#5B5B5B"/>
<stop offset="1" stop-color="#EEEEEE"/>
</linearGradient>
</defs>
</svg>
