<svg width="212" height="129" viewBox="0 0 212 129" fill="none" xmlns="http://www.w3.org/2000/svg">
<path d="M206.833 96.6172C206.833 83.6088 192.895 71.5297 169.666 63.1672L165.485 61.7734V59.9151C170.595 34.363 166.878 15.3151 155.264 8.34634C143.649 1.37759 126.46 7.88176 107.876 24.1422L105.089 26.9297L104.16 26.0005H103.23C84.1825 8.34634 65.5992 2.30676 53.9846 8.81093C42.37 15.3151 39.1179 33.4338 43.7638 57.1276C44.2525 58.635 44.5643 60.194 44.6929 61.7734L39.5825 63.6318C16.8179 71.5297 3.345 83.6088 3.345 96.6172C3.345 109.626 18.2117 122.634 41.4408 130.996L44.6929 131.926C44.1189 133.57 43.8055 135.294 43.7638 137.036C39.1179 160.265 43.2992 177.919 53.9846 184.423C64.67 190.928 84.1825 184.888 102.766 168.628L105.553 166.305L109.27 170.021C122.278 181.171 135.287 187.211 145.508 187.211C149.113 187.293 152.664 186.325 155.728 184.423C167.343 177.919 171.524 158.871 166.414 134.713V133.784C166.213 133.019 166.058 132.244 165.949 131.461H167.343C191.966 122.634 206.833 110.09 206.833 96.6172ZM193.36 96.6172C193.36 102.192 183.139 111.948 163.162 118.453H162.233C159.797 110.979 156.848 103.683 153.405 96.6172C156.658 89.1838 159.445 81.7505 161.768 74.7818L165.485 75.7109C184.068 82.2151 193.36 91.0422 193.36 96.6172ZM118.097 159.801L114.38 157.013C119.7 151.119 124.664 144.913 129.247 138.43L152.941 134.713C153.405 135.642 153.405 136.571 153.87 137.036C155.526 145.451 155.839 154.075 154.799 162.588C154.146 166.659 152.19 170.409 149.224 173.273C144.578 176.061 132.035 172.344 118.097 159.801ZM112.058 139.359L105.553 147.721L98.12 139.359H112.058ZM48.4096 74.3172C50.7447 81.9768 53.6967 89.4345 57.2367 96.6172C53.6938 103.959 50.7421 111.571 48.4096 119.382L45.6221 118.453C37.4866 115.885 29.9173 111.785 23.3221 106.373C21.6143 105.294 20.1527 103.868 19.0322 102.187C17.9116 100.506 17.1572 98.6086 16.8179 96.6172C16.8179 91.0422 26.1096 82.2151 43.7638 76.1755L48.4096 74.3172ZM98.12 53.8755L105.089 45.9776L112.058 53.8755H98.12ZM149.224 19.9609C154.335 22.7484 157.122 36.6859 152.941 57.1276C152.962 57.3793 152.932 57.6327 152.852 57.8723C152.772 58.112 152.644 58.3328 152.476 58.5213L129.247 54.8047C124.664 48.321 119.7 42.1156 114.38 36.2213L117.168 33.8984C132.035 20.8901 144.114 17.1734 149.224 19.9609ZM71.6387 69.2068L67.9221 75.2463L64.67 81.2859C63.2763 78.0338 62.3471 74.7818 60.9533 71.0651L71.6387 69.2068ZM60.9533 122.169C62.3471 118.917 63.2763 115.665 64.67 111.948L67.9221 117.988L71.6387 124.028L60.9533 122.169ZM138.539 96.6172C136.175 101.711 133.538 106.674 130.641 111.484C127.853 116.594 124.601 121.24 121.814 125.886H88.3638C85.1117 120.775 81.8596 116.13 79.5367 111.484C76.6164 106.687 73.9793 101.722 71.6387 96.6172C73.893 91.4697 76.5332 86.5 79.5367 81.7505C82.2058 76.9372 85.1532 72.2835 88.3638 67.813C99.4944 66.8844 110.683 66.8844 121.814 67.813C125.066 72.4588 127.853 77.1047 130.641 81.7505C133.644 86.5 136.285 91.4697 138.539 96.6172ZM142.255 75.2463L138.539 69.2068L149.224 71.5297C148.19 74.856 146.948 78.1144 145.508 81.2859L142.255 75.2463ZM138.539 124.028L142.255 117.988L145.508 111.484L149.689 122.169L138.539 124.028ZM95.3325 35.7568H95.7971L80.9304 54.3401L57.7013 58.0568C57.2367 56.663 57.2367 55.7338 56.7721 54.3401C53.0554 35.2922 55.8429 22.2838 60.4888 19.9609C61.7222 19.1508 63.2095 18.8203 64.67 19.0318C71.1742 19.0318 82.3242 23.6776 94.8679 34.8276L95.3325 35.7568ZM56.7721 139.359C56.8569 137.924 57.1706 136.513 57.7013 135.178L81.395 138.43C85.8616 145 90.8321 151.213 96.2617 157.013L95.3325 157.942L94.4033 158.871C88.0695 164.738 80.6527 169.315 72.5679 172.344C70.7943 173.273 68.8513 173.834 66.8554 173.994C64.8596 174.154 62.8521 173.909 60.9533 173.273C55.8429 170.486 53.0554 157.942 56.7721 139.359Z" fill="url(#paint0_linear_23_2553)"/>
<path d="M105.089 76.1754C101.027 76.0831 97.0304 77.2031 93.6082 79.3924C90.1861 81.5817 87.4938 84.741 85.8752 88.4671C84.2565 92.1933 83.7848 96.3172 84.5203 100.313C85.2558 104.308 87.1651 107.994 90.0046 110.899C92.844 113.805 96.4848 115.798 100.462 116.625C104.44 117.452 108.573 117.076 112.336 115.543C116.098 114.011 119.319 111.392 121.586 108.021C123.853 104.65 125.065 100.68 125.066 96.6171C125.067 91.2752 122.977 86.145 119.244 82.3245C115.51 78.504 110.429 76.2969 105.089 76.1754Z" fill="url(#paint1_linear_23_2553)"/>
<defs>
<linearGradient id="paint0_linear_23_2553" x1="105.089" y1="5.57495" x2="105.089" y2="187.216" gradientUnits="userSpaceOnUse">
<stop/>
<stop offset="0.610577" stop-color="#5B5B5B"/>
<stop offset="1" stop-color="#EEEEEE"/>
</linearGradient>
<linearGradient id="paint1_linear_23_2553" x1="104.624" y1="76.1702" x2="104.624" y2="117.054" gradientUnits="userSpaceOnUse">
<stop stop-color="#231F1F"/>
<stop offset="0.466346" stop-color="#404040"/>
<stop offset="0.807692" stop-color="#AFAFAF"/>
<stop offset="1" stop-color="#EEEEEE"/>
</linearGradient>
</defs>
</svg>
