<svg width="22" height="22" viewBox="0 0 22 22" fill="none" xmlns="http://www.w3.org/2000/svg">
<path fill-rule="evenodd" clip-rule="evenodd" d="M3.17568 3.17568C1.83325 4.5181 1.83325 6.67871 1.83325 10.9999C1.83325 15.3211 1.83325 17.4818 3.17568 18.8241C4.5181 20.1666 6.67871 20.1666 10.9999 20.1666C15.3211 20.1666 17.4818 20.1666 18.8241 18.8241C20.1666 17.4818 20.1666 15.3211 20.1666 10.9999C20.1666 6.67871 20.1666 4.5181 18.8241 3.17568C17.4818 1.83325 15.3211 1.83325 10.9999 1.83325C6.67871 1.83325 4.5181 1.83325 3.17568 3.17568ZM5.88845 8.72648C6.13153 8.43478 6.56504 8.39538 6.85673 8.63845L7.11012 8.8496C7.66465 9.31169 8.13674 9.70503 8.46346 10.0668C8.81047 10.4511 9.08128 10.893 9.08128 11.4583C9.08128 12.0235 8.81047 12.4654 8.46346 12.8497C8.13674 13.2115 7.66465 13.6049 7.11012 14.0669L6.85673 14.2781C6.56504 14.5212 6.13153 14.4818 5.88845 14.1901C5.64538 13.8983 5.68478 13.4648 5.97647 13.2218L6.19134 13.0427C6.79503 12.5396 7.18978 12.2085 7.44296 11.9281C7.68338 11.6619 7.70628 11.5371 7.70628 11.4583C7.70628 11.3794 7.68338 11.2547 7.44296 10.9884C7.18978 10.708 6.79503 10.3769 6.19135 9.87379L5.97647 9.69477C5.68478 9.45167 5.64538 9.01817 5.88845 8.72648ZM16.2708 13.7499C16.2708 14.1296 15.9629 14.4374 15.5833 14.4374H10.9999C10.6202 14.4374 10.3124 14.1296 10.3124 13.7499C10.3124 13.3702 10.6202 13.0624 10.9999 13.0624H15.5833C15.9629 13.0624 16.2708 13.3702 16.2708 13.7499Z" fill="#1C274C"/>
</svg>
