<svg width="56" height="55" viewBox="0 0 56 55" fill="none" xmlns="http://www.w3.org/2000/svg">
<path d="M0.5 27.5V55H55.5V0H0.5V27.5ZM44.8231 25.3092C46.221 25.6575 47.2844 26.2785 48.2629 27.2915C48.7694 27.8323 49.521 28.8177 49.5806 29.056C49.599 29.1248 47.2065 30.729 45.7581 31.6296C45.7054 31.664 45.4946 31.4371 45.2608 31.0888C44.5504 30.0575 43.8102 29.6129 42.6758 29.535C41.0075 29.4204 39.935 30.2935 39.9442 31.751C39.929 32.1095 40.0097 32.4655 40.1779 32.7823C40.5446 33.5408 41.2275 33.9969 43.3633 34.9204C47.3027 36.6163 48.9871 37.7323 50.0344 39.3204C51.2031 41.0919 51.4667 43.9221 50.6715 46.0258C49.8006 48.3129 47.635 49.8667 44.5871 50.38C43.6452 50.5473 41.4108 50.5221 40.3979 50.3387C38.1888 49.9446 36.0942 48.8538 34.8017 47.4215C34.2952 46.8646 33.3075 45.4048 33.3694 45.3017C33.3946 45.265 33.6215 45.1252 33.8735 44.9785C34.121 44.8388 35.0446 44.3048 35.9177 43.7983L37.499 42.8817L37.8313 43.3721C38.2942 44.0779 39.3048 45.0473 39.9167 45.3704C41.6721 46.2963 44.0806 46.1656 45.2677 45.1C45.5064 44.8989 45.6954 44.6453 45.8198 44.3591C45.9443 44.0729 46.0008 43.7617 45.985 43.45C45.985 42.8129 45.9048 42.5333 45.5725 42.0521C45.1463 41.4425 44.2731 40.9292 41.7935 39.8521C38.9565 38.6306 37.735 37.8721 36.6167 36.6667C35.9187 35.8712 35.4032 34.9325 35.1065 33.9167C34.8979 33.1398 34.8452 31.1919 35.0102 30.4081C35.5946 27.665 37.664 25.756 40.65 25.1877C41.6194 25.0044 43.8721 25.0731 44.8231 25.3092ZM31.9119 27.6054L31.9302 29.8581H24.7688V50.199H19.7042V29.8581H12.5496V27.649C12.5496 26.4252 12.5748 25.4031 12.6092 25.3802C12.6367 25.3435 16.9931 25.3252 22.2731 25.3344L31.8867 25.3619L31.9119 27.6054Z" fill="black"/>
</svg>
