<svg width="18" height="19" viewBox="0 0 18 19" fill="none" xmlns="http://www.w3.org/2000/svg">
<path d="M12.304 3.34412L15.156 6.19612M5 5.50012H2C1.73478 5.50012 1.48043 5.60547 1.29289 5.79301C1.10536 5.98055 1 6.2349 1 6.50012V16.5001C1 16.7653 1.10536 17.0197 1.29289 17.2072C1.48043 17.3948 1.73478 17.5001 2 17.5001H13C13.2652 17.5001 13.5196 17.3948 13.7071 17.2072C13.8946 17.0197 14 16.7653 14 16.5001V12.0001M16.409 2.09012C16.5964 2.27742 16.745 2.49981 16.8464 2.74457C16.9478 2.98933 17 3.25168 17 3.51662C17 3.78156 16.9478 4.0439 16.8464 4.28866C16.745 4.53343 16.5964 4.75581 16.409 4.94312L9.565 11.7871L6 12.5001L6.713 8.93512L13.557 2.09112C13.7442 1.90365 13.9664 1.75493 14.2111 1.65346C14.4558 1.55199 14.7181 1.49976 14.983 1.49976C15.2479 1.49976 15.5102 1.55199 15.7549 1.65346C15.9996 1.75493 16.2218 1.90365 16.409 2.09112V2.09012Z" stroke="#757575" stroke-width="2" stroke-linecap="round" stroke-linejoin="round"/>
</svg>
